<mxfile host="Electron" modified="2024-03-24T09:51:22.390Z" agent="Mozilla/5.0 (Windows NT 10.0; Win64; x64) AppleWebKit/537.36 (KHTML, like Gecko) draw.io/24.1.0 Chrome/120.0.6099.109 Electron/28.1.0 Safari/537.36" etag="MdQJj9pOYYFJFTbCYJjK" version="24.1.0" type="device">
  <diagram name="Page-1" id="sQavYB4XfGveEre5pjrx">
    <mxGraphModel dx="757" dy="578" grid="1" gridSize="10" guides="1" tooltips="1" connect="1" arrows="1" fold="1" page="1" pageScale="1" pageWidth="827" pageHeight="1169" math="0" shadow="0">
      <root>
        <mxCell id="0" />
        <mxCell id="1" parent="0" />
        <mxCell id="7TuqJn0EwJp9BxIFDdLv-2" value="" style="rounded=1;whiteSpace=wrap;html=1;fillColor=none;strokeColor=#5ABEF0;arcSize=5;" vertex="1" parent="1">
          <mxGeometry x="240" y="210" width="360" height="240" as="geometry" />
        </mxCell>
        <mxCell id="7TuqJn0EwJp9BxIFDdLv-1" value="app" style="rounded=1;whiteSpace=wrap;html=1;strokeColor=none;fillColor=#5ABEF0;fontSize=15;fontColor=#FFFFFF;" vertex="1" parent="1">
          <mxGeometry x="240" y="210" width="360" height="60" as="geometry" />
        </mxCell>
        <mxCell id="7TuqJn0EwJp9BxIFDdLv-6" value="" style="html=1;verticalLabelPosition=bottom;align=center;labelBackgroundColor=#ffffff;verticalAlign=top;strokeWidth=2;strokeColor=#1E6EB4;shadow=0;dashed=0;shape=mxgraph.ios7.icons.documents;" vertex="1" parent="1">
          <mxGeometry x="470" y="280" width="40" height="50" as="geometry" />
        </mxCell>
        <mxCell id="7TuqJn0EwJp9BxIFDdLv-7" value="" style="html=1;verticalLabelPosition=bottom;align=center;labelBackgroundColor=#ffffff;verticalAlign=top;strokeWidth=2;strokeColor=#1E6EB4;shadow=0;dashed=0;shape=mxgraph.ios7.icons.documents;" vertex="1" parent="1">
          <mxGeometry x="540" y="280" width="40" height="50" as="geometry" />
        </mxCell>
        <mxCell id="7TuqJn0EwJp9BxIFDdLv-8" value="" style="html=1;verticalLabelPosition=bottom;align=center;labelBackgroundColor=#ffffff;verticalAlign=top;strokeWidth=2;strokeColor=#1E6EB4;shadow=0;dashed=0;shape=mxgraph.ios7.icons.documents;" vertex="1" parent="1">
          <mxGeometry x="260" y="370" width="40" height="50" as="geometry" />
        </mxCell>
        <mxCell id="7TuqJn0EwJp9BxIFDdLv-9" value="descript" style="text;html=1;align=center;verticalAlign=middle;whiteSpace=wrap;rounded=0;fontColor=#1E6EB4;" vertex="1" parent="1">
          <mxGeometry x="250" y="330" width="60" height="30" as="geometry" />
        </mxCell>
        <mxCell id="7TuqJn0EwJp9BxIFDdLv-10" value="schema" style="text;html=1;align=center;verticalAlign=middle;whiteSpace=wrap;rounded=0;fontColor=#1E6EB4;" vertex="1" parent="1">
          <mxGeometry x="320" y="330" width="60" height="30" as="geometry" />
        </mxCell>
        <mxCell id="7TuqJn0EwJp9BxIFDdLv-11" value="policy" style="text;html=1;align=center;verticalAlign=middle;whiteSpace=wrap;rounded=0;fontColor=#1E6EB4;" vertex="1" parent="1">
          <mxGeometry x="460" y="330" width="60" height="30" as="geometry" />
        </mxCell>
        <mxCell id="7TuqJn0EwJp9BxIFDdLv-12" value="states" style="text;html=1;align=center;verticalAlign=middle;whiteSpace=wrap;rounded=0;fontColor=#1E6EB4;" vertex="1" parent="1">
          <mxGeometry x="530" y="330" width="60" height="30" as="geometry" />
        </mxCell>
        <mxCell id="7TuqJn0EwJp9BxIFDdLv-13" value="script" style="text;html=1;align=center;verticalAlign=middle;whiteSpace=wrap;rounded=0;fontColor=#1E6EB4;" vertex="1" parent="1">
          <mxGeometry x="250" y="420" width="60" height="30" as="geometry" />
        </mxCell>
        <mxCell id="7TuqJn0EwJp9BxIFDdLv-14" value="" style="html=1;verticalLabelPosition=bottom;align=center;labelBackgroundColor=#ffffff;verticalAlign=top;strokeWidth=2;strokeColor=#1E6EB4;shadow=0;dashed=0;shape=mxgraph.ios7.icons.documents;" vertex="1" parent="1">
          <mxGeometry x="330" y="370" width="40" height="50" as="geometry" />
        </mxCell>
        <mxCell id="7TuqJn0EwJp9BxIFDdLv-16" value="" style="html=1;verticalLabelPosition=bottom;align=center;labelBackgroundColor=#ffffff;verticalAlign=top;strokeWidth=2;strokeColor=#1E6EB4;shadow=0;dashed=0;shape=mxgraph.ios7.icons.documents;" vertex="1" parent="1">
          <mxGeometry x="400" y="370" width="40" height="50" as="geometry" />
        </mxCell>
        <mxCell id="7TuqJn0EwJp9BxIFDdLv-17" value="styles" style="text;html=1;align=center;verticalAlign=middle;whiteSpace=wrap;rounded=0;fontColor=#1E6EB4;" vertex="1" parent="1">
          <mxGeometry x="320" y="420" width="60" height="30" as="geometry" />
        </mxCell>
        <mxCell id="7TuqJn0EwJp9BxIFDdLv-18" value="resources" style="text;html=1;align=center;verticalAlign=middle;whiteSpace=wrap;rounded=0;fontColor=#1E6EB4;" vertex="1" parent="1">
          <mxGeometry x="390" y="420" width="60" height="30" as="geometry" />
        </mxCell>
        <mxCell id="7TuqJn0EwJp9BxIFDdLv-19" value="" style="html=1;verticalLabelPosition=bottom;align=center;labelBackgroundColor=#ffffff;verticalAlign=top;strokeWidth=2;strokeColor=#1E6EB4;shadow=0;dashed=0;shape=mxgraph.ios7.icons.documents;" vertex="1" parent="1">
          <mxGeometry x="470" y="370" width="40" height="50" as="geometry" />
        </mxCell>
        <mxCell id="7TuqJn0EwJp9BxIFDdLv-20" value="i18n" style="text;html=1;align=center;verticalAlign=middle;whiteSpace=wrap;rounded=0;fontColor=#1E6EB4;" vertex="1" parent="1">
          <mxGeometry x="460" y="420" width="60" height="30" as="geometry" />
        </mxCell>
        <mxCell id="7TuqJn0EwJp9BxIFDdLv-22" value="config" style="text;html=1;align=center;verticalAlign=middle;whiteSpace=wrap;rounded=0;fontColor=#1E6EB4;" vertex="1" parent="1">
          <mxGeometry x="390" y="330" width="60" height="30" as="geometry" />
        </mxCell>
        <mxCell id="7TuqJn0EwJp9BxIFDdLv-23" value="" style="html=1;verticalLabelPosition=bottom;align=center;labelBackgroundColor=#ffffff;verticalAlign=top;strokeWidth=2;strokeColor=#1E6EB4;shadow=0;dashed=0;shape=mxgraph.ios7.icons.documents;" vertex="1" parent="1">
          <mxGeometry x="540" y="370" width="40" height="50" as="geometry" />
        </mxCell>
        <mxCell id="7TuqJn0EwJp9BxIFDdLv-24" value="..." style="text;html=1;align=center;verticalAlign=middle;whiteSpace=wrap;rounded=0;fontColor=#1E6EB4;" vertex="1" parent="1">
          <mxGeometry x="530" y="420" width="60" height="30" as="geometry" />
        </mxCell>
        <mxCell id="7TuqJn0EwJp9BxIFDdLv-25" value="" style="html=1;verticalLabelPosition=bottom;align=center;labelBackgroundColor=#ffffff;verticalAlign=top;strokeWidth=2;strokeColor=#1E6EB4;shadow=0;dashed=0;shape=mxgraph.ios7.icons.document;" vertex="1" parent="1">
          <mxGeometry x="330" y="280" width="40" height="50" as="geometry" />
        </mxCell>
        <mxCell id="7TuqJn0EwJp9BxIFDdLv-26" value="" style="html=1;verticalLabelPosition=bottom;align=center;labelBackgroundColor=#ffffff;verticalAlign=top;strokeWidth=2;strokeColor=#1E6EB4;shadow=0;dashed=0;shape=mxgraph.ios7.icons.document;" vertex="1" parent="1">
          <mxGeometry x="260" y="280" width="40" height="50" as="geometry" />
        </mxCell>
        <mxCell id="7TuqJn0EwJp9BxIFDdLv-27" value="" style="html=1;verticalLabelPosition=bottom;align=center;labelBackgroundColor=#ffffff;verticalAlign=top;strokeWidth=2;strokeColor=#1E6EB4;shadow=0;dashed=0;shape=mxgraph.ios7.icons.document;" vertex="1" parent="1">
          <mxGeometry x="400" y="280" width="40" height="50" as="geometry" />
        </mxCell>
      </root>
    </mxGraphModel>
  </diagram>
</mxfile>
